<svg width="267" height="117" viewBox="0 0 267 117" fill="none" xmlns="http://www.w3.org/2000/svg">
<mask id="mask0_26_318" style="mask-type:luminance" maskUnits="userSpaceOnUse" x="0" y="0" width="249" height="117">
<path d="M248.56 0H0V116.85H248.56V0Z" fill="white"/>
</mask>
<g mask="url(#mask0_26_318)">
<path d="M239.21 76.76C237.03 75.07 234.82 74.21 232.59 74.21C231.19 74.21 230.02 74.62 229.08 75.42C228.15 76.24 227.67 77.28 227.67 78.57C227.67 79.78 228.08 80.77 228.9 81.59C229.72 82.4 230.85 82.8 232.26 82.8C234.71 82.8 237.02 81.78 239.19 79.74V76.76H239.21ZM248.56 81.77V86.28H239.7V83.14C237.26 85.52 234.53 86.71 231.52 86.71C229.18 86.71 227.15 85.95 225.43 84.43C223.7 82.91 222.84 80.97 222.84 78.59C222.84 76.21 223.76 74.22 225.59 72.65C227.43 71.07 229.64 70.28 232.22 70.28C234.63 70.28 236.96 71.01 239.21 72.46V69.9C239.21 68.58 239.08 67.57 238.84 66.85C238.59 66.14 238.01 65.5 237.09 64.93C236.18 64.36 234.99 64.08 233.51 64.08C230.97 64.08 229.14 65.1 228 67.13L223.17 65.85C225.32 61.84 229.03 59.84 234.29 59.84C236.22 59.84 237.9 60.1 239.3 60.62C240.71 61.15 241.77 61.82 242.45 62.64C243.15 63.46 243.61 64.35 243.85 65.31C244.09 66.26 244.21 67.78 244.21 69.88V81.76H248.56V81.77ZM205.37 81.77V65.07H200.2V60.56H209.39V66.35C209.96 64.85 210.75 63.59 211.76 62.61C212.78 61.61 213.84 60.96 214.97 60.65C216.1 60.33 217.64 60.18 219.59 60.18H220.92V65.29H219.91C217.34 65.29 215.42 65.54 214.15 66.06C212.88 66.57 211.95 67.5 211.33 68.85C210.72 70.2 210.41 72.63 210.41 76.12V81.77H216.01V86.28H200.18V81.77H205.35H205.37ZM189.01 76.76C186.83 75.07 184.62 74.21 182.39 74.21C180.99 74.21 179.82 74.62 178.88 75.42C177.95 76.24 177.47 77.28 177.47 78.57C177.47 79.78 177.88 80.77 178.7 81.59C179.52 82.4 180.65 82.8 182.06 82.8C184.51 82.8 186.82 81.78 188.99 79.74V76.76H189.01ZM198.36 81.77V86.28H189.5V83.14C187.06 85.52 184.33 86.71 181.32 86.71C178.98 86.71 176.95 85.95 175.23 84.43C173.5 82.91 172.64 80.97 172.64 78.59C172.64 76.21 173.56 74.22 175.39 72.65C177.23 71.07 179.44 70.28 182.03 70.28C184.44 70.28 186.77 71.01 189.02 72.46V69.9C189.02 68.58 188.89 67.57 188.65 66.85C188.4 66.14 187.82 65.5 186.9 64.93C185.99 64.36 184.8 64.08 183.32 64.08C180.78 64.08 178.95 65.1 177.81 67.13L172.98 65.85C175.13 61.84 178.84 59.84 184.1 59.84C186.03 59.84 187.71 60.1 189.11 60.62C190.52 61.15 191.58 61.82 192.26 62.64C192.96 63.46 193.42 64.35 193.66 65.31C193.9 66.26 194.02 67.78 194.02 69.88V81.76H198.37L198.36 81.77ZM138.97 86.72L132.07 65.07H128.92V60.56H139.8V65.07H136.42L141.35 80.58L146.25 65.07H143.44V60.56H155.84V65.07H153.03L157.93 80.58L162.84 65.07H159.31V60.56H170.89V65.07H167.19L160.32 86.72H155.59L149.71 68.13L143.72 86.72H138.96H138.97ZM102.01 86.28V72.9H106.63V76.17C108.85 80.19 111.75 82.2 115.33 82.2C117.16 82.2 118.7 81.64 119.96 80.52C121.22 79.41 121.85 77.94 121.85 76.12C121.85 74.3 121.33 73.1 120.31 72.33C119.29 71.55 117.35 70.79 114.49 70.02C111.17 69.14 108.73 68.3 107.13 67.51C105.53 66.72 104.26 65.6 103.31 64.14C102.36 62.68 101.89 60.95 101.89 58.95C101.89 55.85 102.92 53.38 104.99 51.53C107.06 49.68 109.66 48.76 112.78 48.76C115.9 48.76 118.5 49.71 121.04 51.62V49.14H125.55V60.34H121.04V57.77C119.14 54.91 116.53 53.49 113.18 53.49C111.16 53.49 109.61 53.95 108.52 54.89C107.44 55.82 106.9 56.94 106.9 58.23C106.9 59.23 107.17 60.1 107.72 60.85C108.27 61.61 108.97 62.16 109.82 62.52C110.67 62.87 112.34 63.37 114.84 64.02C118.09 64.87 120.46 65.67 121.94 66.4C123.41 67.13 124.68 68.36 125.75 70.08C126.81 71.79 127.35 73.77 127.35 76C127.35 79.15 126.23 81.75 124.01 83.8C121.78 85.86 119.02 86.88 115.74 86.88C112.46 86.88 109.33 85.67 106.63 83.25V86.29H102.01V86.28Z" fill="#FF6666"/>
<path d="M29.49 94.22C30.54 93.35 31.4498 92.34 32.1898 91.23C32.9798 90.05 33.5698 88.76 33.9198 87.43C34.2698 86.11 34.37 84.74 34.18 83.41C34.01 82.16 33.58 80.94 32.86 79.8C32.77 79.65 32.67 79.5 32.56 79.35C32.45 79.19 32.34 79.05 32.25 78.93C31.24 77.65 29.59 75.32 27.87 72.4C26.64 70.31 25.38 67.91 24.28 65.36C23.37 63.25 22.5699 61.01 21.9799 58.73C21.4599 56.71 21.11 54.66 21 52.63C20.69 46.8 21.44 41.46 23 36.69C24.69 31.53 27.32 27.05 30.6 23.32C32.23 21.46 34.03 19.8 35.95 18.33C37.91 16.83 39.99 15.55 42.16 14.49C44.31 13.44 46.5498 12.61 48.8498 12.01C51.1398 11.41 53.47 11.05 55.81 10.92C59.95 10.7 64.11 11.25 68.08 12.62C71.86 13.93 75.4599 15.98 78.7099 18.83C80.8999 20.76 82.49 23.46 83.75 26.41C84.98 29.31 85.8898 32.47 86.7298 35.38L87.0998 36.65C87.2298 37.08 87.3498 37.51 87.4798 37.94C88.1798 40.26 89.1698 42.17 90.1998 43.78C91.2498 45.41 92.3398 46.72 93.2598 47.82L93.2998 47.86C93.6898 48.32 94.0398 48.75 94.3398 49.13C94.5898 49.45 94.8798 49.8 95.1398 50.11L95.16 50.13C96.06 51.22 96.7098 52.01 96.9898 52.93C97.2898 53.9 97.14 54.89 96.41 56.29C95.85 57.35 94.8198 58.14 93.7298 58.71C93.1698 59 92.5998 59.24 92.0798 59.43C92.8498 60 93.5098 60.49 93.9198 61.21C94.3598 61.98 94.4698 62.93 94.0498 64.32C93.7798 65.21 93.37 65.87 92.91 66.38C92.71 66.6 92.5098 66.78 92.3098 66.95C93.2698 67.72 94.0698 68.65 93.7298 70.25C93.3698 71.95 92.4798 72.35 91.5398 72.78C91.1098 72.98 90.6498 73.18 90.3098 73.58C90.0998 73.84 90.7698 74.14 91.0398 75.06L91.0698 75.17C91.3098 76.01 91.5698 76.9 91.7198 77.76C91.8898 78.7 91.9498 79.66 91.7698 80.56C91.4898 82.05 90.7198 83.27 89.1298 83.96C87.6598 84.59 85.47 84.73 82.26 84.12C80.3 83.75 78.76 83.4 77.44 83.11L77.37 83.09C76.72 82.95 76.1299 82.81 75.5299 82.69C75.0698 82.59 74.6099 82.51 74.1399 82.43C74.0799 82.5 74.01 82.58 73.93 82.64C72.82 83.61 71.72 84.65 70.72 85.75C69.73 86.84 68.84 88 68.12 89.23C67.44 90.38 66.9299 91.6 66.6399 92.88C66.3499 94.15 66.2999 95.49 66.5299 96.9C66.9999 99.67 68.2398 100.99 68.8798 101.51C67.8698 101.81 66.42 102.17 64.44 102.43C64.25 102.14 64.06 101.82 63.88 101.48C63.32 100.43 62.84 99.14 62.57 97.55C62.24 95.62 62.32 93.79 62.7 92.06C63.08 90.34 63.77 88.72 64.66 87.2C65.36 86.01 66.18 84.88 67.07 83.83C67.63 83.17 68.22 82.53 68.83 81.91C68.43 81.89 68.0198 81.87 67.5898 81.86C66.8998 81.84 66.18 81.82 65.41 81.8C63.09 81.76 60.93 81.45 58.91 80.92C56.76 80.36 54.78 79.55 52.99 78.55C51.06 77.47 49.3398 76.18 47.8498 74.75C46.2598 73.22 44.9198 71.54 43.8498 69.78C42.5698 67.69 41.4999 64.92 40.6199 62.15C39.9199 59.94 39.35 57.73 38.93 55.87C40.4 58.28 42.3999 60.38 44.7999 62.04C44.9999 62.64 45.21 63.22 45.43 63.79C45.99 65.24 46.5998 66.58 47.2799 67.69C48.1798 69.17 49.2999 70.58 50.6399 71.86C51.8899 73.06 53.33 74.15 54.95 75.05C56.46 75.89 58.13 76.58 59.95 77.05C61.66 77.5 63.51 77.76 65.48 77.8C66.34 77.82 67.11 77.84 67.8 77.86C68.53 77.88 69.16 77.91 69.72 77.94C70.36 77.98 70.91 78.01 71.4 78.05C71.91 78.09 72.3798 78.14 72.8398 78.19C73.8498 78.31 74.7298 78.45 75.5998 78.61C76.4198 78.77 77.2898 78.96 78.2799 79.18H78.3C79.52 79.46 80.95 79.78 83 80.17C84.95 80.54 86.2198 80.59 86.9998 80.42H87.0198C87.5498 80.3 87.7798 80.08 87.8298 79.81C87.9998 78.94 87.5798 77.49 87.2098 76.2L87.1898 76.14C86.9998 75.47 86.8098 74.83 86.6998 74.24C86.5698 73.58 86.5199 72.95 86.6199 72.37L86.6398 72.28C86.9198 71.08 87.0598 70.5 89.0298 69.46C88.6398 69.17 88.2798 68.87 87.9898 68.51C87.5898 68 87.3498 67.41 87.4298 66.63C87.4998 65.96 87.7298 65.49 88.0798 65.1L88.1199 65.06C88.4299 64.72 88.7898 64.49 89.1898 64.23C89.5698 63.98 90.0498 63.66 90.1998 63.15C90.2098 63.1 90.1998 63.07 90.1998 63.05L90.1798 63.02C90.0898 62.91 89.8998 62.77 89.6798 62.61C89.1898 62.25 88.6399 61.84 88.1199 61.32C86.0499 59.25 86.3998 57.87 87.2398 57.03C87.9698 56.3 89.0999 56.07 89.1199 56.07H89.2098C89.5498 55.99 92.2998 55.44 92.8498 54.4C92.9698 54.17 92.98 54 92.91 53.83C92.78 53.54 92.4798 53.17 92.0598 52.66L92.0198 52.61C91.7598 52.3 91.4798 51.96 91.1798 51.57C90.8698 51.18 90.5498 50.79 90.1998 50.37L90.1498 50.31C89.1398 49.1 87.9398 47.65 86.7798 45.83C85.5998 43.99 84.47 41.77 83.65 39.07L83.2799 37.82C83.1499 37.37 82.97 36.85 82.87 36.4C81.34 31.09 79.5398 24.88 76.0598 21.81C73.2198 19.31 70.0698 17.51 66.7698 16.37C63.2898 15.17 59.65 14.69 56.02 14.89C53.95 15 51.8899 15.32 49.8699 15.85C47.8399 16.38 45.85 17.12 43.93 18.06C41.99 19.01 40.1399 20.15 38.3899 21.48C36.6799 22.78 35.0799 24.27 33.6199 25.93C30.6799 29.27 28.3199 33.3 26.8099 37.94C25.3999 42.25 24.73 47.09 25.01 52.38C25.1 54.14 25.4199 55.94 25.8799 57.73C26.4099 59.76 27.1399 61.79 27.9699 63.72C29.0099 66.14 30.19 68.38 31.32 70.32C32.93 73.06 34.45 75.21 35.38 76.39C35.54 76.59 35.69 76.79 35.83 76.99C35.97 77.19 36.11 77.4 36.24 77.6C37.27 79.23 37.8799 80.98 38.1399 82.75C38.4099 84.62 38.27 86.53 37.79 88.37C37.34 90.07 36.6 91.73 35.61 93.24C34.8 94.49 33.8098 95.65 32.6898 96.67C33.0898 96.89 33.49 97.11 33.9 97.32C31.96 96.42 30.52 95.23 29.49 94.15" fill="#336666"/>
<path d="M59.2 38.84C58.51 42.52 58.27 45.62 56.72 46.71V34.77C56.72 34.2 56.25 33.98 58.3 33.98C58.3 33.71 58.06 33.5 57.76 33.5H53C52.7 33.5 52.46 33.72 52.46 33.98C54.45 33.98 54.0401 34.2 54.0401 34.79V46.84C52.3001 45.88 52.08 42.68 51.36 38.84C50.72 35.41 48.08 35.25 46.76 35.39C46.64 35.4 46.63 35.55 46.76 35.58C49.57 36.1 48.9 40.51 49.34 43.5C49.68 45.75 51.23 47.4 54.05 47.78V56.91C54.05 56.91 52.2 58.04 52.2 58.41V58.52H58.5601V58.41C58.5601 58.04 56.73 56.9 56.71 56.88V47.76C59.43 47.35 60.89 45.71 61.22 43.5C61.67 40.51 61 36.1 63.8 35.58C63.92 35.56 63.91 35.41 63.8 35.39C62.48 35.24 59.84 35.41 59.2 38.84Z" fill="#FF6666"/>
<path fill-rule="evenodd" clip-rule="evenodd" d="M55.3899 30.44C63.6999 30.44 70.4299 37.17 70.4299 45.48C70.4299 53.79 63.6999 60.52 55.3899 60.52C47.0799 60.52 40.3499 53.79 40.3499 45.48C40.3499 37.17 47.0799 30.44 55.3899 30.44ZM55.3899 27.26C65.4499 27.26 73.6099 35.42 73.6099 45.48C73.6099 55.54 65.4499 63.7 55.3899 63.7C45.3299 63.7 37.1699 55.54 37.1699 45.48C37.1699 35.42 45.3299 27.26 55.3899 27.26Z" fill="#FF6666"/>
<path fill-rule="evenodd" clip-rule="evenodd" d="M58.43 0C86.39 0 109.76 19.64 115.5 45.88C114.1 45.97 112.7 46.16 111.33 46.47C105.88 22.27 84.27 4.2 58.43 4.2C28.48 4.2 4.2 28.48 4.2 58.43C4.2 88.38 28.48 112.66 58.43 112.66C76.22 112.66 92.01 104.09 101.9 90.86C103.26 91.44 104.7 91.86 106.15 92.16C95.57 107.1 78.14 116.86 58.44 116.86C26.16 116.85 0 90.7 0 58.43C0 26.16 26.16 0 58.43 0Z" fill="#336666"/>
<path d="M245.693 97.4225L245.723 97.6634C245.723 97.6634 245.872 97.3915 246.092 96.8376C246.312 96.2837 246.532 95.8971 246.752 95.6568C246.971 95.4268 247.201 95.3119 247.441 95.3119C247.621 95.3119 247.76 95.3432 247.86 95.4164C247.96 95.4895 248 95.5627 248 95.6568C248 95.8135 247.97 95.9285 247.9 96.0225C247.83 96.1166 247.72 96.2315 247.561 96.3673C246.881 96.9317 246.392 97.6106 246.092 98.4158C245.793 99.2203 245.643 99.8894 245.643 100.422C245.643 100.672 245.673 100.84 245.733 100.934C245.793 101.028 245.943 101.101 246.182 101.164C246.422 101.227 246.572 101.29 246.642 101.362C246.712 101.436 246.741 101.519 246.741 101.613C246.741 101.781 246.652 101.864 246.462 101.864C246.312 101.864 246.102 101.833 245.843 101.781C245.573 101.729 245.293 101.697 244.984 101.697C244.774 101.697 244.574 101.729 244.365 101.781C244.155 101.833 244.025 101.864 243.965 101.864C243.815 101.864 243.695 101.833 243.605 101.77C243.516 101.707 243.465 101.634 243.465 101.53C243.465 101.456 243.485 101.394 243.545 101.331C243.596 101.279 243.735 101.205 243.975 101.122C244.205 101.039 244.354 100.945 244.405 100.861C244.454 100.777 244.484 100.506 244.484 100.046V97.4019C244.484 97.2347 244.445 97.0884 244.374 96.9526C244.305 96.8167 244.155 96.7227 243.945 96.6391C243.726 96.5659 243.605 96.5032 243.565 96.451C243.525 96.3987 243.505 96.336 243.505 96.2733C243.505 96.0748 243.636 95.9807 243.885 95.9807C243.955 95.9807 244.075 95.9912 244.234 96.0225C244.394 96.0539 244.514 96.0643 244.574 96.0643C244.624 96.0643 244.714 96.0539 244.834 96.0329C244.954 96.012 245.103 96.0016 245.263 96.0016C245.553 96.0016 245.693 96.3361 245.693 97.0048V97.4332V97.4225ZM240.829 98.2277C240.949 98.2277 241.038 98.2063 241.078 98.1543C241.118 98.1122 241.138 98.0289 241.138 97.9035C241.138 97.4645 240.978 97.0571 240.659 96.6705C240.34 96.2837 239.86 96.0956 239.221 96.0956C238.772 96.0956 238.322 96.3256 237.843 96.7854C237.373 97.2452 237.134 97.8928 237.134 98.7294C237.134 99.3457 237.383 99.8894 237.883 100.38C238.382 100.871 238.941 101.111 239.561 101.111C240.03 101.111 240.53 100.955 241.078 100.631C241.288 100.506 241.418 100.453 241.488 100.453C241.588 100.453 241.658 100.484 241.718 100.547C241.778 100.6 241.798 100.683 241.798 100.767C241.798 100.976 241.498 101.237 240.909 101.54C240.32 101.843 239.71 102 239.091 102C238.172 102 237.393 101.655 236.764 100.965C236.135 100.276 235.815 99.4604 235.815 98.5198C235.815 97.6526 236.165 96.9108 236.854 96.2942C237.543 95.6776 238.322 95.3746 239.181 95.3746C240.3 95.3746 241.129 95.6881 241.688 96.3046C242.247 96.9317 242.517 97.6733 242.517 98.5305C242.517 98.7186 242.477 98.8334 242.387 98.8754C242.307 98.9175 242.148 98.9381 241.918 98.9381H238.262C237.963 98.9381 237.813 98.8127 237.813 98.5726C237.813 98.3317 237.972 98.2277 238.272 98.2277H240.819H240.829ZM229.053 97.0988C229.053 96.8795 229.013 96.7227 228.944 96.6077C228.864 96.5032 228.704 96.4196 228.465 96.3778C228.215 96.3256 228.095 96.2106 228.095 96.012C228.095 95.9285 228.135 95.8449 228.224 95.7612C228.315 95.6776 228.425 95.6463 228.565 95.6463C228.624 95.6463 228.724 95.6672 228.874 95.709C229.024 95.7508 229.144 95.7717 229.243 95.7717C229.303 95.7717 229.433 95.7508 229.653 95.7195C229.862 95.6881 229.993 95.6672 230.052 95.6672C230.163 95.6672 230.232 95.7195 230.272 95.8135C230.312 95.9076 230.342 96.1061 230.342 96.3987C230.352 96.8795 230.362 97.4019 230.362 97.9455L230.312 100.443C230.312 100.62 230.322 100.735 230.352 100.777C230.372 100.819 230.442 100.871 230.542 100.934C230.642 100.997 230.771 101.049 230.921 101.08C231.081 101.111 231.171 101.164 231.221 101.227C231.261 101.29 231.281 101.362 231.281 101.446C231.281 101.644 231.141 101.738 230.861 101.738C230.671 101.738 230.472 101.718 230.272 101.676C230.063 101.634 229.873 101.613 229.673 101.613C229.513 101.613 229.303 101.634 229.053 101.666C228.804 101.697 228.614 101.718 228.485 101.718C228.215 101.718 228.075 101.603 228.075 101.394C228.075 101.3 228.095 101.227 228.145 101.164C228.195 101.101 228.295 101.07 228.454 101.059C228.634 101.049 228.744 101.017 228.794 100.976C228.914 100.84 228.993 100.715 229.024 100.61C229.053 100.506 229.073 100.286 229.073 99.9621V97.0988H229.053ZM233.947 100.453C233.947 100.704 233.987 100.871 234.067 100.945C234.147 101.017 234.287 101.08 234.487 101.133C234.687 101.185 234.787 101.279 234.787 101.415C234.787 101.603 234.687 101.686 234.487 101.686C234.447 101.686 234.287 101.676 234.007 101.655C233.728 101.634 233.488 101.624 233.288 101.624C232.969 101.624 232.699 101.644 232.479 101.697C232.26 101.749 232.12 101.77 232.05 101.77C231.95 101.77 231.861 101.738 231.781 101.666C231.69 101.592 231.65 101.509 231.65 101.415C231.65 101.342 231.69 101.268 231.75 101.196C231.821 101.122 231.9 101.091 231.99 101.091C232.16 101.091 232.309 101.039 232.449 100.934C232.579 100.819 232.65 100.663 232.65 100.453C232.65 99.0528 232.65 98.1749 232.67 97.8408C232.689 97.5066 232.689 97.3183 232.689 97.2765C232.689 96.8167 232.499 96.5973 232.12 96.5973C231.96 96.5973 231.72 96.7331 231.421 97.0048C231.121 97.2766 230.901 97.4125 230.782 97.4125C230.742 97.4125 230.691 97.381 230.642 97.3183C230.592 97.2556 230.562 97.1929 230.562 97.1302C230.562 96.9212 230.802 96.6078 231.291 96.1897C231.781 95.7717 232.26 95.5627 232.729 95.5627C233.009 95.5627 233.238 95.6359 233.448 95.7926C233.648 95.9493 233.788 96.1375 233.848 96.3778C233.918 96.6078 233.947 96.9422 233.947 97.3705V97.9241V100.453ZM221.073 97.0988C221.073 96.8795 221.034 96.7227 220.954 96.6077C220.874 96.5032 220.714 96.4196 220.474 96.3778C220.225 96.3256 220.105 96.2106 220.105 96.012C220.105 95.9285 220.145 95.8449 220.235 95.7612C220.324 95.6776 220.435 95.6463 220.574 95.6463C220.634 95.6463 220.734 95.6672 220.884 95.709C221.034 95.7508 221.153 95.7717 221.253 95.7717C221.313 95.7717 221.443 95.7508 221.663 95.7195C221.873 95.6881 222.002 95.6672 222.062 95.6672C222.172 95.6672 222.242 95.7195 222.282 95.8135C222.322 95.9076 222.352 96.1061 222.352 96.3987C222.362 96.8795 222.372 97.4019 222.372 97.9455L222.322 100.443C222.322 100.62 222.332 100.735 222.362 100.777C222.382 100.819 222.452 100.871 222.552 100.934C222.652 100.997 222.782 101.049 222.931 101.08C223.091 101.111 223.181 101.164 223.231 101.227C223.271 101.29 223.291 101.362 223.291 101.446C223.291 101.644 223.151 101.738 222.871 101.738C222.682 101.738 222.482 101.718 222.282 101.676C222.073 101.634 221.882 101.613 221.683 101.613C221.523 101.613 221.313 101.634 221.064 101.666C220.814 101.697 220.624 101.718 220.494 101.718C220.225 101.718 220.085 101.603 220.085 101.394C220.085 101.3 220.105 101.227 220.155 101.164C220.205 101.101 220.304 101.07 220.464 101.059C220.644 101.049 220.754 101.017 220.804 100.976C220.924 100.84 221.004 100.715 221.034 100.61C221.064 100.506 221.084 100.286 221.084 99.9621V97.0988H221.073ZM225.967 100.453C225.967 100.704 226.007 100.871 226.087 100.945C226.167 101.017 226.307 101.08 226.507 101.133C226.707 101.185 226.807 101.279 226.807 101.415C226.807 101.603 226.707 101.686 226.507 101.686C226.467 101.686 226.307 101.676 226.027 101.655C225.748 101.634 225.508 101.624 225.309 101.624C224.989 101.624 224.719 101.644 224.5 101.697C224.28 101.749 224.14 101.77 224.07 101.77C223.97 101.77 223.88 101.738 223.8 101.666C223.72 101.592 223.671 101.509 223.671 101.415C223.671 101.342 223.711 101.268 223.77 101.196C223.84 101.122 223.92 101.091 224.01 101.091C224.18 101.091 224.329 101.039 224.469 100.934C224.599 100.819 224.669 100.663 224.669 100.453C224.669 99.0528 224.669 98.1749 224.689 97.8408C224.709 97.5066 224.709 97.3183 224.709 97.2765C224.709 96.8167 224.52 96.5973 224.14 96.5973C223.98 96.5973 223.74 96.7331 223.441 97.0048C223.141 97.2766 222.921 97.4125 222.802 97.4125C222.762 97.4125 222.711 97.381 222.662 97.3183C222.612 97.2556 222.582 97.1929 222.582 97.1302C222.582 96.9212 222.822 96.6078 223.311 96.1897C223.8 95.7717 224.28 95.5627 224.749 95.5627C225.029 95.5627 225.258 95.6359 225.468 95.7926C225.668 95.9493 225.808 96.1375 225.868 96.3778C225.938 96.6078 225.967 96.9422 225.967 97.3705V97.9241V100.453ZM217.877 100.276C217.877 100.558 217.928 100.746 218.027 100.84C218.127 100.923 218.247 100.986 218.407 101.007C218.567 101.039 218.677 101.07 218.746 101.122C218.817 101.174 218.846 101.268 218.846 101.415C218.846 101.613 218.686 101.707 218.377 101.707C218.247 101.707 218.047 101.697 217.778 101.666C217.508 101.634 217.309 101.624 217.179 101.624C217.048 101.624 216.869 101.644 216.619 101.686C216.37 101.729 216.19 101.749 216.07 101.749C215.95 101.749 215.84 101.707 215.751 101.634C215.66 101.561 215.62 101.456 215.62 101.331C215.62 101.258 215.64 101.185 215.691 101.133C215.74 101.08 215.86 101.028 216.06 100.997C216.259 100.965 216.39 100.892 216.469 100.788C216.549 100.683 216.58 100.432 216.58 100.025V97.0675C216.58 96.8167 216.529 96.6495 216.429 96.5659C216.33 96.4823 216.19 96.4196 216.01 96.3883C215.82 96.3465 215.711 96.2942 215.66 96.2315C215.611 96.1688 215.591 96.0852 215.591 95.9912C215.591 95.8866 215.631 95.8031 215.711 95.7299C215.791 95.6568 215.88 95.6254 215.99 95.6254C216.08 95.6254 216.21 95.6463 216.379 95.6985C216.549 95.7508 216.679 95.7717 216.749 95.7717C216.839 95.7717 216.979 95.7508 217.168 95.7195C217.358 95.6881 217.498 95.6672 217.588 95.6672C217.788 95.6672 217.888 95.8449 217.888 96.2106C217.888 96.2629 217.888 96.3465 217.888 96.4405C217.888 96.5346 217.888 96.6078 217.888 96.6391V100.276H217.877ZM217.218 92.7203C217.458 92.7203 217.668 92.8143 217.848 93.0129C218.027 93.2114 218.118 93.4309 218.118 93.7026C218.118 93.9325 218.027 94.1415 217.857 94.2983C217.688 94.4654 217.478 94.549 217.238 94.549C216.999 94.549 216.789 94.455 216.619 94.2773C216.449 94.0997 216.359 93.8802 216.359 93.6295C216.359 93.3786 216.44 93.18 216.619 93.0024C216.789 92.8248 216.989 92.7307 217.218 92.7307V92.7203ZM209.208 93.18C209.208 92.5322 209.268 91.9992 209.398 91.5812C209.518 91.1632 209.728 90.787 210.017 90.4212C210.307 90.0659 210.647 89.7629 211.026 89.5016C211.406 89.2403 211.655 89.1149 211.765 89.1149C211.835 89.1149 211.875 89.2299 211.875 89.4598C211.875 89.4912 211.825 89.5434 211.726 89.6375C211.246 90.0241 210.926 90.5048 210.746 91.0587C210.567 91.623 210.477 92.2395 210.477 92.9188V95.7403C210.477 95.8135 210.517 95.8449 210.607 95.8449C210.647 95.8449 210.737 95.8449 210.877 95.8135C211.016 95.7926 211.156 95.7822 211.296 95.7822C211.606 95.7822 211.755 95.8971 211.755 96.127C211.755 96.242 211.706 96.3256 211.606 96.3987C211.506 96.4614 211.386 96.4927 211.246 96.4927C210.737 96.4927 210.477 96.7227 210.477 97.172V100.203C210.477 100.495 210.497 100.672 210.547 100.735C210.597 100.809 210.657 100.871 210.737 100.955C210.817 101.039 210.976 101.091 211.236 101.122C211.486 101.153 211.646 101.205 211.706 101.268C211.765 101.321 211.795 101.404 211.795 101.498C211.795 101.729 211.635 101.843 211.326 101.843C211.146 101.843 210.917 101.812 210.637 101.749C210.357 101.686 210.088 101.655 209.808 101.655C209.638 101.655 209.388 101.686 209.079 101.749C208.769 101.812 208.569 101.843 208.489 101.843C208.15 101.843 207.98 101.718 207.98 101.467C207.98 101.384 208 101.31 208.05 101.268C208.1 101.216 208.24 101.174 208.47 101.143C208.699 101.111 208.869 101.059 208.979 100.976C209.088 100.903 209.148 100.798 209.168 100.683C209.188 100.568 209.199 100.318 209.199 99.9307V97.1407C209.199 96.7227 208.959 96.5137 208.489 96.5137C208.12 96.5137 207.94 96.3883 207.94 96.127C207.94 95.8971 208.13 95.7822 208.499 95.7822C208.629 95.7822 208.759 95.7822 208.879 95.8135C208.999 95.8344 209.079 95.8449 209.099 95.8449C209.159 95.8449 209.199 95.8135 209.199 95.7403V93.1905L209.208 93.18ZM203.975 101.153C204.584 101.153 205.083 100.913 205.453 100.432C205.823 99.9521 206.003 99.335 206.003 98.6039C206.003 97.8721 205.803 97.287 205.413 96.8167C205.023 96.3569 204.524 96.1166 203.915 96.1166C203.306 96.1166 202.817 96.3465 202.467 96.8063C202.128 97.2661 201.958 97.8515 201.958 98.5726C201.958 99.3664 202.148 99.9934 202.527 100.464C202.906 100.923 203.385 101.164 203.975 101.164V101.153ZM203.975 95.3537C204.864 95.3537 205.633 95.6881 206.292 96.3465C206.951 97.0048 207.281 97.7674 207.281 98.6353C207.281 99.6072 206.971 100.39 206.332 101.007C205.703 101.613 204.864 101.927 203.806 101.927C202.977 101.927 202.217 101.613 201.558 100.997C200.899 100.37 200.559 99.5965 200.559 98.6766C200.559 97.7574 200.849 97.0153 201.438 96.3569C202.028 95.6881 202.866 95.3642 203.975 95.3642V95.3537ZM195.485 98.2277C195.605 98.2277 195.685 98.2063 195.735 98.1543C195.775 98.1122 195.795 98.0289 195.795 97.9035C195.795 97.4645 195.636 97.0571 195.316 96.6705C194.996 96.2837 194.517 96.0956 193.878 96.0956C193.428 96.0956 192.979 96.3256 192.499 96.7854C192.03 97.2452 191.79 97.8928 191.79 98.7294C191.79 99.3457 192.04 99.8894 192.539 100.38C193.038 100.871 193.598 101.111 194.217 101.111C194.687 101.111 195.186 100.955 195.735 100.631C195.945 100.506 196.075 100.453 196.145 100.453C196.245 100.453 196.314 100.484 196.374 100.547C196.434 100.6 196.454 100.683 196.454 100.767C196.454 100.976 196.155 101.237 195.565 101.54C194.976 101.843 194.367 102 193.748 102C192.829 102 192.05 101.655 191.42 100.965C190.792 100.276 190.472 99.4604 190.472 98.5198C190.472 97.6526 190.821 96.9108 191.511 96.2942C192.2 95.6776 192.979 95.3746 193.838 95.3746C194.956 95.3746 195.785 95.6881 196.345 96.3046C196.894 96.9317 197.174 97.6733 197.174 98.5305C197.174 98.7186 197.134 98.8334 197.044 98.8754C196.964 98.9175 196.804 98.9381 196.574 98.9381H192.919C192.619 98.9381 192.469 98.8127 192.469 98.5726C192.469 98.3317 192.63 98.2277 192.929 98.2277H195.476H195.485ZM189.383 100.495C189.533 100.495 189.603 100.631 189.603 100.903C189.603 101.07 189.334 101.3 188.794 101.572C188.255 101.843 187.685 101.979 187.096 101.979C186.127 101.979 185.289 101.655 184.599 101.017C183.91 100.38 183.56 99.5652 183.56 98.5932C183.56 97.7261 183.89 96.963 184.549 96.3151C185.209 95.6568 185.987 95.3328 186.896 95.3328C187.386 95.3328 187.945 95.4478 188.574 95.6568C189.203 95.8762 189.513 96.0748 189.513 96.2524C189.513 96.5764 189.533 96.8376 189.563 97.0361C189.593 97.2347 189.613 97.3497 189.613 97.381C189.613 97.6419 189.503 97.7674 189.274 97.7674C189.104 97.7674 188.973 97.5899 188.884 97.2452C188.784 96.9003 188.594 96.6182 188.295 96.4196C187.995 96.2106 187.625 96.1061 187.186 96.1061C186.637 96.1061 186.127 96.3256 185.648 96.7749C185.178 97.2139 184.939 97.8515 184.939 98.6666C184.939 99.4191 185.209 100.025 185.738 100.506C186.267 100.986 186.827 101.216 187.396 101.216C187.605 101.216 187.825 101.185 188.045 101.133C188.275 101.07 188.525 100.955 188.794 100.777C189.074 100.6 189.263 100.506 189.383 100.506V100.495ZM181.563 100.276C181.563 100.558 181.613 100.746 181.713 100.84C181.813 100.923 181.933 100.986 182.092 101.007C182.252 101.039 182.362 101.07 182.432 101.122C182.502 101.174 182.532 101.268 182.532 101.415C182.532 101.613 182.372 101.707 182.062 101.707C181.933 101.707 181.733 101.697 181.463 101.666C181.193 101.634 180.994 101.624 180.864 101.624C180.734 101.624 180.554 101.644 180.304 101.686C180.055 101.729 179.875 101.749 179.756 101.749C179.635 101.749 179.526 101.707 179.435 101.634C179.346 101.561 179.306 101.456 179.306 101.331C179.306 101.258 179.326 101.185 179.376 101.133C179.426 101.08 179.546 101.028 179.745 100.997C179.945 100.965 180.075 100.892 180.155 100.788C180.235 100.683 180.264 100.432 180.264 100.025V97.0675C180.264 96.8167 180.215 96.6495 180.115 96.5659C180.015 96.4823 179.875 96.4196 179.696 96.3883C179.506 96.3465 179.395 96.2942 179.346 96.2315C179.296 96.1688 179.276 96.0852 179.276 95.9912C179.276 95.8866 179.316 95.8031 179.395 95.7299C179.475 95.6568 179.566 95.6254 179.676 95.6254C179.765 95.6254 179.895 95.6463 180.065 95.6985C180.235 95.7508 180.364 95.7717 180.434 95.7717C180.525 95.7717 180.664 95.7508 180.854 95.7195C181.044 95.6881 181.184 95.6672 181.273 95.6672C181.473 95.6672 181.573 95.8449 181.573 96.2106C181.573 96.2629 181.573 96.3465 181.573 96.4405C181.573 96.5346 181.573 96.6078 181.573 96.6391V100.276H181.563ZM180.904 92.7203C181.144 92.7203 181.353 92.8143 181.533 93.0129C181.713 93.2114 181.793 93.4309 181.793 93.7026C181.793 93.9325 181.703 94.1415 181.533 94.2983C181.363 94.4654 181.153 94.549 180.914 94.549C180.674 94.549 180.464 94.455 180.295 94.2773C180.125 94.0997 180.035 93.8802 180.035 93.6295C180.035 93.3786 180.115 93.18 180.295 93.0024C180.464 92.8248 180.664 92.7307 180.894 92.7307L180.904 92.7203ZM175.041 101.153C175.66 101.153 176.15 100.913 176.52 100.432C176.889 99.9521 177.068 99.335 177.068 98.6039C177.068 97.8721 176.869 97.287 176.48 96.8167C176.09 96.3569 175.591 96.1166 174.981 96.1166C174.372 96.1166 173.883 96.3465 173.533 96.8063C173.193 97.2661 173.024 97.8515 173.024 98.5726C173.024 99.3664 173.213 99.9934 173.593 100.464C173.973 100.923 174.452 101.164 175.041 101.164V101.153ZM175.031 95.3537C175.92 95.3537 176.689 95.6881 177.349 96.3465C178.007 97.0048 178.337 97.7674 178.337 98.6353C178.337 99.6072 178.027 100.39 177.389 101.007C176.759 101.613 175.92 101.927 174.862 101.927C174.033 101.927 173.273 101.613 172.614 100.997C171.955 100.37 171.615 99.5965 171.615 98.6766C171.615 97.7574 171.905 97.0153 172.495 96.3569C173.084 95.6881 173.922 95.3642 175.031 95.3642V95.3537ZM168.58 90.8288C168.64 90.6198 168.679 90.4735 168.679 90.3585C168.679 90.0973 168.469 89.951 168.06 89.9196C167.84 89.8987 167.68 89.8569 167.59 89.7942C167.501 89.742 167.45 89.6166 167.45 89.4285C167.45 89.3135 167.49 89.2195 167.581 89.1463C167.67 89.0627 167.8 89.0209 167.98 89.0209C168.13 89.0209 168.339 89.0522 168.609 89.1149C168.879 89.1776 169.148 89.209 169.438 89.209C169.638 89.209 169.848 89.1776 170.067 89.1149C170.287 89.0522 170.487 89.0209 170.657 89.0209C170.846 89.0209 170.986 89.0627 171.086 89.1568C171.186 89.2508 171.236 89.3658 171.236 89.5016C171.236 89.7002 171.166 89.8151 171.026 89.8778C170.886 89.9405 170.717 89.9719 170.507 89.9719C170.258 89.9719 170.028 90.0659 169.828 90.2436C169.628 90.4317 169.449 90.7661 169.288 91.2677L166.053 101.342C166.053 101.342 166.022 101.456 165.993 101.582C165.963 101.707 165.923 101.801 165.872 101.843C165.823 101.885 165.753 101.917 165.683 101.917C165.623 101.917 165.563 101.885 165.503 101.833C165.453 101.77 165.404 101.676 165.364 101.54C165.324 101.404 165.293 101.321 165.284 101.29L161.698 90.881C161.488 90.2854 161.179 89.9927 160.749 89.9927C160.51 89.9927 160.319 89.9405 160.19 89.8361C160.06 89.7315 160 89.5956 160 89.418C160 89.1672 160.17 89.0418 160.519 89.0418C160.759 89.0418 161.049 89.0836 161.398 89.1568C161.748 89.2299 161.977 89.2717 162.097 89.2717C162.217 89.2717 162.477 89.2299 162.897 89.1359C163.316 89.0418 163.575 89 163.666 89C164.245 89 164.535 89.1568 164.535 89.4807C164.535 89.6583 164.484 89.7837 164.384 89.8673C164.285 89.9405 164.115 89.9823 163.885 89.9823C163.385 89.9823 163.136 90.1495 163.136 90.4839C163.136 90.6093 163.166 90.7556 163.236 90.9229L165.903 98.5512L166.013 98.75L166.102 98.5619L168.6 90.8079L168.58 90.8288Z" fill="#336666"/>
</g>
<path d="M248.58 43.2102V42.2727H255.125V43.2102H252.381V51H251.324V43.2102H248.58ZM256.756 42.2727H258.017L260.983 49.517H261.086L264.051 42.2727H265.313V51H264.324V44.3693H264.239L261.512 51H260.557L257.83 44.3693H257.745V51H256.756V42.2727Z" fill="black"/>
</svg>
